<?xml version="1.0" encoding="UTF-8"?>
<svg version="1.1" xmlns="http://www.w3.org/2000/svg" width="512" height="512">
<path d="M0 0 C11.6370455 12.40355748 16.25997201 26.40815101 16.24755859 43.05102539 C16.25427582 44.3462915 16.26099304 45.64155762 16.26791382 46.97607422 C16.2855148 50.51576212 16.2902669 54.05535318 16.29154539 57.59508061 C16.29297173 59.81323377 16.2972506 62.0313627 16.30253983 64.24950981 C16.32102573 72.00742007 16.32921289 79.76526181 16.32763672 87.52319336 C16.32643806 94.72192244 16.34748968 101.92035037 16.37912405 109.11900336 C16.40540683 115.32399704 16.41599891 121.52889316 16.4147259 127.73394197 C16.41421946 131.42881047 16.41972329 135.12341156 16.441082 138.81822395 C16.46431925 142.95071571 16.45487078 147.08254803 16.44287109 151.21508789 C16.45411011 152.41610641 16.46534912 153.61712494 16.47692871 154.85453796 C16.35998348 170.81678954 10.91408916 185.47415547 -0.05078125 197.21875 C-13.6799087 209.99271652 -28.83400496 215.38784042 -47.18164062 215.37304688 C-49.18032617 215.38353657 -51.17901172 215.39402671 -53.17769718 215.40453339 C-55.31394203 215.41386957 -57.45014799 215.41836596 -59.58641052 215.42146301 C-64.06097343 215.42822275 -68.53538843 215.45003447 -73.0098877 215.47399902 C-82.52087983 215.52284343 -92.03190354 215.55518949 -101.54296875 215.5859375 C-111.7868394 215.61912492 -122.03065169 215.65538761 -132.27443361 215.71006823 C-135.98602017 215.72941845 -139.69752977 215.74476441 -143.40916443 215.75041199 C-172.30702726 215.79618545 -199.74014574 216.58514052 -221.80859375 237.82421875 C-222.5459375 238.57058594 -223.28328125 239.31695312 -224.04296875 240.0859375 C-225.08710938 241.09720703 -225.08710938 241.09720703 -226.15234375 242.12890625 C-239.8760345 256.3047341 -244.64082484 274.66084763 -244.65234375 293.890625 C-244.66737214 295.35037017 -244.68410879 296.81009865 -244.70245361 298.26980591 C-244.74561821 302.06065777 -244.76601108 305.85128062 -244.78118896 309.64233398 C-244.80094666 313.5312222 -244.84289362 317.41986949 -244.8828125 321.30859375 C-244.95756104 328.90097606 -245.00818445 336.49325553 -245.04296875 344.0859375 C-252.51360445 344.16251933 -259.98413746 344.21475909 -267.45507812 344.25073242 C-269.99222598 344.26574227 -272.52934823 344.28615647 -275.06640625 344.31225586 C-278.73053337 344.34898355 -282.39431498 344.36574258 -286.05859375 344.37890625 C-287.73746674 344.40213203 -287.73746674 344.40213203 -289.45025635 344.42582703 C-306.27277945 344.42935583 -320.32402425 338.83836126 -332.2890625 327 C-351.56298046 307.04411243 -356.44820117 279.42437543 -361.04296875 253.0859375 C-361.17719238 252.31862305 -361.31141602 251.55130859 -361.44970703 250.76074219 C-367.80411269 212.52706086 -362.81401946 162.25539138 -339.87890625 130.046875 C-327.93658548 114.72863316 -310.56042795 104.87594724 -291.45964622 101.50854874 C-284.42872503 100.63888916 -277.34367073 100.82717041 -270.27075195 100.85888672 C-268.49575304 100.85945179 -266.72075365 100.85913241 -264.945755 100.85800171 C-260.15726131 100.85743093 -255.36886905 100.86914054 -250.5803988 100.88314962 C-245.56493162 100.89570299 -240.54946179 100.8968311 -235.53398132 100.89920044 C-226.04992934 100.90540172 -216.56592379 100.92179415 -207.08189219 100.94189942 C-196.2789471 100.96430062 -185.47599973 100.97526244 -174.67303717 100.98529029 C-152.4629878 101.00616164 -130.25298285 101.04171692 -108.04296875 101.0859375 C-108.04296875 96.4659375 -108.04296875 91.8459375 -108.04296875 87.0859375 C-148.63296875 87.0859375 -189.22296875 87.0859375 -231.04296875 87.0859375 C-231.04296875 10.73810559 -231.04296875 10.73810559 -218.09375 -3.04296875 C-198.27512322 -21.12510633 -166.42999073 -23.50033285 -141.04296875 -25.9140625 C-140.3051416 -25.98608887 -139.56731445 -26.05811523 -138.80712891 -26.13232422 C-94.60593876 -30.21160174 -34.41726895 -32.31008922 0 0 Z " fill="#3671A2" transform="translate(363.04296875,29.9140625)"/>
<path d="M0 0 C7.18996898 -0.09350426 14.37980264 -0.16416596 21.570261 -0.20724869 C24.91075139 -0.22794777 28.25050472 -0.25816345 31.59082031 -0.30175781 C35.44867663 -0.35081059 39.30594894 -0.3730911 43.1640625 -0.390625 C44.92588364 -0.42159271 44.92588364 -0.42159271 46.72329712 -0.45318604 C62.74030853 -0.45743041 75.49745366 4.72652097 87.1875 15.5625 C92.73848554 21.37739928 96.43660595 27.88114377 100 35 C100.52207031 35.99773437 101.04414063 36.99546875 101.58203125 38.0234375 C123.23457932 83.38524006 123.47213409 141.7692684 107.11328125 188.46484375 C99.90896315 208.38445248 90.73232596 229.75793962 70.4375 239.375 C63.43754504 242.38906511 56.06552024 243.30055982 48.51475525 243.24050903 C47.71077272 243.24221788 46.90679018 243.24392673 46.07844454 243.24568737 C43.41149636 243.24895523 40.74480546 243.23802362 38.07788086 243.22705078 C36.15539557 243.22648608 34.23290985 243.22680437 32.3104248 243.22793579 C27.11067225 243.22850801 21.91101257 243.21677488 16.71128154 243.20278788 C11.27005535 243.19025869 5.82882688 243.18910829 0.3875885 243.18673706 C-9.90755393 243.18052872 -20.20265372 243.16412664 -30.4977774 243.14403808 C-42.22206179 243.12165898 -53.94634825 243.11068059 -65.67064869 243.10064721 C-89.78045687 243.07975985 -113.89022424 243.04419206 -138 243 C-138 247.95 -138 252.9 -138 258 C-97.41 258 -56.82 258 -15 258 C-15 325.59360259 -15 325.59360259 -29.3125 340.75 C-57.97744639 367.33137099 -106.13679743 375.1935063 -143.82128906 374.08886719 C-179.45118504 372.6355635 -224.0119394 365.35910705 -249.55078125 337.76171875 C-257.20610357 328.45565307 -262.10147942 317.7777356 -262.14044189 305.58213806 C-262.14615204 304.50718079 -262.15186218 303.43222351 -262.15774536 302.32469177 C-262.15886322 301.15527542 -262.15998108 299.98585907 -262.16113281 298.78100586 C-262.16609772 297.54134064 -262.17106262 296.30167542 -262.17617798 295.02444458 C-262.18826629 291.62939936 -262.19574005 288.23441558 -262.20018864 284.83935618 C-262.20312704 282.71336719 -262.20723339 280.58738349 -262.21169281 278.46139717 C-262.22536097 271.79573307 -262.23502956 265.13008119 -262.2388947 258.46440405 C-262.2433665 250.7965177 -262.26087622 243.1288104 -262.2898953 235.46097845 C-262.31159867 229.51763583 -262.32160366 223.57434325 -262.32293582 217.63096148 C-262.32397817 214.08930694 -262.32976251 210.54782086 -262.34775543 207.00620842 C-262.3674853 203.04566718 -262.36291285 199.08534478 -262.35644531 195.12475586 C-262.37026749 193.39188576 -262.37026749 193.39188576 -262.3843689 191.62400818 C-262.2975058 174.54983279 -256.10807082 158.2532018 -244 146 C-229.70468281 133.36836196 -215.28803748 128.69795776 -196.60839844 128.71289062 C-194.58721777 128.70240145 -192.56603711 128.69191179 -190.54485655 128.68140411 C-188.38787619 128.6720765 -186.23093429 128.66757368 -184.07393646 128.66447449 C-179.55811197 128.65771226 -175.04243382 128.63590007 -170.52667236 128.61193848 C-160.93448274 128.56312645 -151.34226202 128.53072915 -141.75 128.5 C-131.40482865 128.46682404 -121.05971518 128.43067159 -110.71463227 128.37586927 C-106.2382261 128.35271045 -101.76192193 128.33882766 -97.2854619 128.33237457 C-94.48451917 128.32637703 -91.68365769 128.31223068 -88.88275719 128.29603004 C-86.99241812 128.28748562 -85.10204294 128.28856362 -83.21168518 128.29008484 C-59.1589744 128.11818485 -39.20462174 121.23413224 -22 104 C-6.18442029 87.92978663 -0.78489796 68.77297212 -0.5859375 46.6796875 C-0.56718422 45.32633336 -0.54760787 43.97299041 -0.5272522 42.61965942 C-0.4763634 39.09186456 -0.43650918 35.56403197 -0.39910889 32.03607178 C-0.35879475 28.42239381 -0.30782886 24.80886689 -0.2578125 21.1953125 C-0.16156697 14.13031946 -0.07700133 7.06523118 0 0 Z " fill="#FFD045" transform="translate(394,131)"/>
<path d="M0 0 C5.08939077 3.50114986 8.34036595 7.68742088 10.265625 13.55859375 C11.1378054 20.91127738 10.84940408 27.53227243 6.265625 33.55859375 C1.09338866 39.17891987 -4.80980156 42.59920501 -12.546875 43.05859375 C-18.97779549 42.84292264 -24.52360548 40.35457486 -29.3671875 36.13671875 C-34.60340989 30.30475848 -36.39297354 24.00102431 -36.140625 16.3359375 C-35.17819951 9.75627861 -31.89725469 5.16926078 -26.734375 1.12109375 C-17.82802098 -4.85510291 -9.48189636 -5.26275065 0 0 Z " fill="#FFFEFC" transform="translate(337.734375,422.44140625)"/>
<path d="M0 0 C4.62064984 3.13796254 8.22437512 7.35277831 10.30078125 12.5625 C11.16543585 20.16341719 11.12800237 27.34390338 6.30078125 33.5625 C1.07432043 39.22881149 -4.8191812 42.62944394 -12.63671875 43 C-19.2234735 42.77977416 -23.65221126 40.38206222 -28.51171875 36.0625 C-34.37929403 29.35669968 -35.31754442 24.20408076 -35.109375 15.30859375 C-34.51969386 9.92283936 -32.60406219 7.16422774 -28.69921875 3.5625 C-27.94511719 2.81226563 -27.94511719 2.81226563 -27.17578125 2.046875 C-19.01715978 -5.46423683 -9.2340787 -5.05504775 0 0 Z " fill="#FCFDFD" transform="translate(198.69921875,43.4375)"/>
</svg>
