<?xml version="1.0" encoding="UTF-8"?>
<svg version="1.1" xmlns="http://www.w3.org/2000/svg" width="512" height="443">
<path d="M0 0 C25.57286998 -0.56151899 51.1448122 -0.98427434 76.72261238 -1.24349213 C88.60021561 -1.36707426 100.47398186 -1.53541561 112.34912109 -1.81054688 C122.70418567 -2.05034492 133.05647204 -2.20472326 143.41423595 -2.25812387 C148.89665358 -2.28933231 154.37112711 -2.36218597 159.85098648 -2.53752136 C193.18676003 -3.56389587 193.18676003 -3.56389587 201.18123817 2.35550308 C206.11303749 7.97494548 208.8451063 14.13363182 211.07392883 21.2118454 C212.2995195 24.90177376 214.04261418 27.84257305 216.12109375 31.1171875 C217.22713621 33.03612777 218.33261985 34.95539026 219.4375 36.875 C220.04964355 37.93686523 220.66178711 38.99873047 221.29248047 40.09277344 C224.47266695 45.60963864 227.64927307 51.12855491 230.82421875 56.6484375 C232.09097628 58.84905594 233.35790193 61.04957762 234.625 63.25 C235.23794922 64.31524902 235.85089844 65.38049805 236.48242188 66.47802734 C239.56510681 71.82369069 242.67389051 77.15164329 245.83203125 82.453125 C246.74251221 83.98211426 246.74251221 83.98211426 247.67138672 85.54199219 C248.82383722 87.47219544 249.98023579 89.40004851 251.14111328 91.32519531 C251.65013184 92.17694336 252.15915039 93.02869141 252.68359375 93.90625 C253.13275146 94.65197266 253.58190918 95.39769531 254.04467773 96.16601562 C255 98 255 98 255 100 C255.66 100 256.32 100 257 100 C257.41620605 98.90715698 257.41620605 98.90715698 257.84082031 97.79223633 C258.92815665 95.17305652 260.14897015 92.78877258 261.546875 90.32421875 C262.05460449 89.42662842 262.56233398 88.52903809 263.08544922 87.60424805 C263.63475098 86.64172119 264.18405273 85.67919434 264.75 84.6875 C265.32637207 83.67276611 265.90274414 82.65803223 266.49658203 81.61254883 C271.14934555 73.44225589 275.87349048 65.31432801 280.6237793 57.20043945 C285.53590531 48.80993494 290.39823896 40.39145101 295.23583984 31.95776367 C296.38963611 29.95158513 297.58931131 27.97121651 298.8293457 26.01716614 C300.64035157 22.95845637 301.65721599 19.980711 302.67276001 16.5802002 C305.09324338 9.74351601 307.94428877 4.23141458 314 0 C326.57580337 -4.59402279 342.18697084 -2.61476172 355.30008149 -2.23066664 C360.81410664 -2.09251293 366.32842913 -2.08016814 371.84391785 -2.05410767 C382.27239879 -1.98590136 392.69576613 -1.80563724 403.12200135 -1.58441889 C414.99801404 -1.33794649 426.87427979 -1.2174181 438.75221598 -1.10711932 C463.17097222 -0.87756178 487.58519889 -0.49096717 512 0 C510.7282356 3.93195472 509.38267032 7.36655837 507.26953125 10.921875 C506.72176025 11.85112793 506.17398926 12.78038086 505.60961914 13.73779297 C505.01656982 14.73182129 504.42352051 15.72584961 503.8125 16.75 C502.53580222 18.91367549 501.25978329 21.07775166 499.984375 23.2421875 C499.32501953 24.35819336 498.66566406 25.47419922 497.98632812 26.62402344 C494.81074644 32.0212633 491.6862344 37.44764 488.5625 42.875 C487.30341652 45.05991376 486.04430177 47.24480949 484.78515625 49.4296875 C484.16012207 50.51475586 483.53508789 51.59982422 482.89111328 52.71777344 C479.76319852 58.14659942 476.63141552 63.57319281 473.5 69 C472.24998121 71.16665583 470.99998122 73.3333225 469.75 75.5 C467.25 79.83333333 464.75 84.16666667 462.25 88.5 C461.63116943 89.57266113 461.01233887 90.64532227 460.37475586 91.75048828 C459.12564482 93.91557071 457.87645871 96.08060982 456.62719727 98.24560547 C453.48797691 103.68615706 450.35009437 109.12747216 447.21484375 114.5703125 C440.59777108 126.0544882 433.95366023 137.52196894 427.26708984 148.96582031 C421.10080946 159.52620282 414.9950405 170.12126766 408.89111328 180.71777344 C405.76319852 186.14659942 402.63141552 191.57319281 399.5 197 C398.24998121 199.16665583 396.99998122 201.3333225 395.75 203.5 C393.25 207.83333333 390.75 212.16666667 388.25 216.5 C387.63116943 217.57266113 387.01233887 218.64532227 386.37475586 219.75048828 C385.12564482 221.91557071 383.87645871 224.08060982 382.62719727 226.24560547 C379.48797691 231.68615706 376.35009437 237.12747216 373.21484375 242.5703125 C367.16944796 253.06232172 361.10878989 263.54475319 355 274 C344.53842341 291.90847626 334.19906487 309.88623901 323.92391968 327.90216064 C318.74014875 336.98795878 313.49805979 346.03821041 308.21630859 355.06738281 C302.06207011 365.59111319 295.97620913 376.1539592 289.89111328 386.71777344 C286.76319852 392.14659942 283.63141635 397.57319329 280.5 403 C279.26951242 405.13280164 278.03904375 407.26561418 276.80859375 409.3984375 C270.5390625 420.265625 264.26953125 431.1328125 258 442 C256.68 442 255.36 442 254 442 C253.51926025 441.14341797 253.51926025 441.14341797 253.02880859 440.26953125 C246.24037143 428.18625718 239.37311092 416.15439352 232.37231445 404.19287109 C226.16403197 393.58353211 220.02671226 382.93371497 213.89111328 372.28222656 C210.76319854 366.85340062 207.63146269 361.42677993 204.5 356 C200.73636081 349.47766725 196.97355378 342.95486238 193.21484375 336.4296875 C187.1694482 325.93767869 181.10884752 315.45521288 175 305 C165.09227385 288.04154863 155.2875217 271.02414758 145.55371094 253.96533203 C136.2127102 237.60459721 126.7720548 221.30177046 117.26782227 205.03540039 C109.82621867 192.29104098 102.47012878 179.49733847 95.10449219 166.70898438 C93.21601507 163.43068938 91.32698334 160.15271515 89.4375 156.875 C88.81552734 155.79605469 88.19355469 154.71710938 87.55273438 153.60546875 C83.41311552 146.43128049 79.24475079 139.2744002 75.0625 132.125 C69.64078822 122.85500223 64.29795085 113.54168248 58.98077393 104.21154785 C53.77954871 95.0871716 48.51972122 85.99867226 43.21655273 76.93310547 C37.0726035 66.42671741 30.99680244 55.8813613 24.921875 45.33496094 C22.28843474 40.76524626 19.65105288 36.19781189 17.01367188 31.63037109 C15.12218741 28.3534074 13.23274097 25.07527653 11.34375 21.796875 C9.33035174 18.30290348 7.31103951 14.81259698 5.28125 11.328125 C4.54165293 10.0520913 3.80206816 8.77605046 3.0625 7.5 C2.45535156 6.4584375 1.84820312 5.416875 1.22265625 4.34375 C0 2 0 2 0 0 Z " fill="#40B782" transform="translate(0,0)"/>
<path d="M0 0 C12.14228092 -0.55830459 24.28147505 -0.98354296 36.43401527 -1.24349213 C42.0791359 -1.36833544 47.71543194 -1.53721988 53.35546875 -1.81054688 C90.9315396 -3.58442458 90.9315396 -3.58442458 98.34048462 2.22564697 C103.41511 7.74968859 105.94470483 14.00624738 108.08642578 21.11657715 C109.28394827 24.89619751 110.99484475 27.77966515 113.12109375 31.1171875 C114.22713621 33.03612777 115.33261985 34.95539026 116.4375 36.875 C117.04964355 37.93686523 117.66178711 38.99873047 118.29248047 40.09277344 C121.47266695 45.60963864 124.64927307 51.12855491 127.82421875 56.6484375 C129.09097628 58.84905594 130.35790193 61.04957762 131.625 63.25 C132.23794922 64.31524902 132.85089844 65.38049805 133.48242188 66.47802734 C136.56510681 71.82369069 139.67389051 77.15164329 142.83203125 82.453125 C143.74251221 83.98211426 143.74251221 83.98211426 144.67138672 85.54199219 C145.82383722 87.47219544 146.98023579 89.40004851 148.14111328 91.32519531 C148.65013184 92.17694336 149.15915039 93.02869141 149.68359375 93.90625 C150.13275146 94.65197266 150.58190918 95.39769531 151.04467773 96.16601562 C152 98 152 98 152 100 C152.66 100 153.32 100 154 100 C154.41620605 98.90715698 154.41620605 98.90715698 154.84082031 97.79223633 C155.92815665 95.17305652 157.14897015 92.78877258 158.546875 90.32421875 C159.05460449 89.42662842 159.56233398 88.52903809 160.08544922 87.60424805 C160.63475098 86.64172119 161.18405273 85.67919434 161.75 84.6875 C162.32637207 83.67276611 162.90274414 82.65803223 163.49658203 81.61254883 C168.14934555 73.44225589 172.87349048 65.31432801 177.6237793 57.20043945 C182.53590531 48.80993494 187.39823896 40.39145101 192.23583984 31.95776367 C193.42097932 29.89708672 194.6585012 27.86601389 195.93530273 25.86083984 C197.75895488 22.79121123 198.6846242 19.77388094 199.66040039 16.34619141 C202.02868939 9.41271467 204.62959161 3.97845175 211 0 C224.99581041 -4.28338951 241.5347615 -2.14886289 255.93103027 -1.51062012 C261.57397149 -1.28429949 267.2190498 -1.18483042 272.86523438 -1.07421875 C283.91583749 -0.83924814 294.95683085 -0.46456324 306 0 C304.53028926 3.76716237 302.8497922 7.19053264 300.83203125 10.69921875 C299.87466064 12.36936035 299.87466064 12.36936035 298.89794922 14.07324219 C298.20289367 15.27804914 297.5077414 16.48280029 296.8125 17.6875 C296.09105251 18.94288672 295.36986506 20.19842292 294.64892578 21.45410156 C292.7949706 24.68120292 290.93698535 27.90596414 289.07781982 31.13006592 C288.05233129 32.90920925 287.02805128 34.68904049 286.00439453 36.46923828 C278.80235022 48.99397142 271.55546289 61.49177714 264.2668457 73.96630859 C258.1005487 84.52647084 251.99494961 95.12142546 245.89111328 105.71777344 C242.76319852 111.14659942 239.63141552 116.57319281 236.5 122 C235.24998121 124.16665583 233.99998122 126.3333225 232.75 128.5 C225.25 141.5 217.75 154.5 210.25 167.5 C209.63116943 168.57266113 209.01233887 169.64532227 208.37475586 170.75048828 C207.12564482 172.91557071 205.87645871 175.08060982 204.62719727 177.24560547 C201.48797691 182.68615706 198.35009437 188.12747216 195.21484375 193.5703125 C188.60793186 205.0368538 181.97430295 216.48689289 175.29785156 227.91308594 C170.73875318 235.7208987 166.20707033 243.54426574 161.6875 251.375 C161.03458984 252.50550781 160.38167969 253.63601562 159.70898438 254.80078125 C159.10763672 255.84363281 158.50628906 256.88648438 157.88671875 257.9609375 C157.35264404 258.88696777 156.81856934 259.81299805 156.26831055 260.76708984 C155.4776882 262.1590113 154.71589511 263.56820979 154 265 C153.34 265 152.68 265 152 265 C151.6282666 264.33170166 151.2565332 263.66340332 150.87353516 262.97485352 C141.5341651 246.19311466 141.5341651 246.19311466 131.88989258 229.5859375 C128.1477555 223.27328454 124.476237 216.92093194 120.8125 210.5625 C119.85657959 208.90383911 119.85657959 208.90383911 118.88134766 207.21166992 C116.9203862 203.8080747 114.96011785 200.40408111 113 197 C105.69530212 184.31652382 98.38401657 171.63750821 91 159 C84.25298806 147.45270484 77.56660682 135.87097973 70.89111328 124.28222656 C67.76319852 118.85340058 64.63141552 113.42680719 61.5 108 C60.24998121 105.83334417 58.99998122 103.6666775 57.75 101.5 C57.13125 100.4275 56.5125 99.355 55.875 98.25 C50.25 88.5 50.25 88.5 48.37475586 85.24951172 C47.12564482 83.08442929 45.87645871 80.91939018 44.62719727 78.75439453 C41.48797691 73.31384294 38.35009437 67.87252784 35.21484375 62.4296875 C29.06254207 51.75188323 22.89607213 41.08270438 16.6875 30.4375 C16.11362549 29.45297852 15.53975098 28.46845703 14.94848633 27.45410156 C12.2843071 22.88956917 9.60847861 18.33276876 6.90234375 13.79296875 C6.43030518 12.99898682 5.9582666 12.20500488 5.47192383 11.38696289 C4.59934281 9.92158983 3.72310379 8.45838631 2.8425293 6.99780273 C0 2.22194217 0 2.22194217 0 0 Z " fill="#34495E" transform="translate(103,0)"/>
</svg>
