<?xml version="1.0" encoding="UTF-8"?>
<svg version="1.1" xmlns="http://www.w3.org/2000/svg" width="512" height="236">
<path d="M0 0 C1.30162582 -0.01004562 2.60325165 -0.02009125 3.94432068 -0.03044128 C5.38041629 -0.03647112 6.81651251 -0.04235614 8.25260925 -0.04811096 C9.77103894 -0.05765683 11.28946648 -0.06754831 12.80789185 -0.07775879 C17.7948907 -0.10910414 22.78190587 -0.12942824 27.76896667 -0.14796448 C28.62110929 -0.1512618 29.47325191 -0.15455912 30.35121703 -0.15795636 C38.411138 -0.18877183 46.47106301 -0.2154437 54.53102589 -0.23237514 C64.7839828 -0.25417449 75.03640892 -0.29590403 85.28915387 -0.36581272 C92.52608447 -0.41344702 99.76287408 -0.43736182 106.99995631 -0.44457203 C111.3056563 -0.44947552 115.61075801 -0.46403556 119.91628456 -0.50431633 C145.58446786 -0.73302708 173.03505964 -0.68299478 193.56193542 17.16062927 C202.57302906 27.83905624 205.64237543 38.67312287 205.87834167 52.33250427 C205.89912277 53.37112106 205.91990387 54.40973785 205.9413147 55.47982788 C206.00807776 58.95668217 206.06671927 62.43361371 206.12443542 65.91062927 C206.15670227 67.7067717 206.15670227 67.7067717 206.18962097 69.53919983 C206.47487169 85.67269961 206.59755392 101.80208286 206.58927917 117.93797302 C206.58869098 119.18152872 206.58869098 119.18152872 206.5880909 120.45020676 C206.58280811 128.70186614 206.56721953 136.95343536 206.53416538 145.20503139 C206.52241825 148.29715937 206.5142594 151.38929156 206.50656319 154.48143196 C206.4996082 156.61924012 206.48698128 158.75696522 206.47415161 160.89474487 C206.47089371 162.17704483 206.4676358 163.45934479 206.46427917 164.78050232 C206.45904236 165.89732895 206.45380554 167.01415558 206.44841003 168.16482544 C206.5548815 170.9744844 206.78875876 173.45750377 207.56193542 176.16062927 C210.66579969 177.71256141 213.95322873 177.31677801 217.36051941 177.32176208 C218.16553894 177.32672699 218.97055847 177.33169189 219.79997253 177.33680725 C222.46933336 177.35144102 225.13863479 177.35823234 227.80802917 177.36375427 C229.65886436 177.36950405 231.50969953 177.3752618 233.36053467 177.38102722 C237.24350767 177.3915402 241.12645995 177.39738115 245.00944519 177.40086365 C249.99094856 177.40635369 254.97217931 177.4303913 259.95359707 177.4588356 C263.77709765 177.47743469 267.60053216 177.48266609 271.42407417 177.48419952 C273.26093603 177.48723199 275.09779656 177.49528043 276.93461418 177.5083847 C279.50127458 177.5253909 282.06726344 177.52357863 284.63395691 177.51707458 C285.77723198 177.53089676 285.77723198 177.53089676 286.94360352 177.54499817 C290.9644005 177.51749952 290.9644005 177.51749952 294.53692627 175.85514832 C296.26606947 172.9965728 295.9104565 169.89335204 295.81193542 166.66062927 C295.80677917 165.98387146 295.80162292 165.30711365 295.79631042 164.60984802 C295.74788761 161.5410519 295.53832479 159.08979735 294.56193542 156.16062927 C275.09193542 155.50062927 255.62193542 154.84062927 235.56193542 154.16062927 C233.76508128 150.56692099 233.3115412 149.56557145 233.30123901 145.86354065 C233.29415421 145.01161636 233.2870694 144.15969208 233.2797699 143.2819519 C233.28224731 142.35520157 233.28472473 141.42845123 233.28727722 140.47361755 C233.27961082 138.99954689 233.27961082 138.99954689 233.27178955 137.49569702 C233.25787132 134.24071687 233.25885339 130.9859482 233.26115417 127.73094177 C233.25726572 125.46091127 233.25293074 123.1908815 233.24816895 120.92085266 C233.24069993 116.15440011 233.24100096 111.38802159 233.2462616 106.62156677 C233.25202764 100.54486408 233.23519805 94.46846902 233.21191692 88.39181709 C233.19709736 83.69716143 233.19631953 79.0025782 233.19942665 74.30790329 C233.19891659 72.0698524 233.19373864 69.83179712 233.18361473 67.59376907 C233.11123144 49.33826666 233.2589193 31.18928444 246.49943542 17.03562927 C262.89329113 2.13212409 284.22368529 -0.30842792 305.30534363 -0.1799469 C307.26782722 -0.17909914 309.23031176 -0.17957867 311.1927948 -0.18127441 C316.48326343 -0.18212999 321.77352517 -0.16457561 327.06394601 -0.14355254 C332.60657448 -0.12471224 338.14920846 -0.12302953 343.69186401 -0.11947632 C354.1710612 -0.11017737 364.65016373 -0.08559284 375.12931937 -0.05542785 C387.0665025 -0.02181669 399.00369031 -0.00538098 410.94090903 0.00965846 C435.4813035 0.04095873 460.02161414 0.09367716 484.56193542 0.16062927 C486.96680627 6.32807572 487.99743353 11.64768253 487.93615723 18.24847412 C487.94013163 19.11749381 487.94410604 19.98651349 487.94820088 20.88186711 C487.95776123 23.76963625 487.94604375 26.65690774 487.93424988 29.54466248 C487.93667996 31.62501711 487.94040138 33.70537057 487.9453125 35.78572083 C487.95469716 41.42017412 487.9453154 47.05445296 487.93198037 52.6888926 C487.92063609 58.59696737 487.9247758 64.50503392 487.92672729 70.41311646 C487.92760954 80.33671404 487.9165462 90.26024322 487.89811707 100.18382263 C487.87696807 111.6371346 487.87343631 123.09034627 487.87967902 134.54367381 C487.88538619 145.58172314 487.87970996 156.61973734 487.86850548 167.6577816 C487.86387561 172.34526917 487.86297867 177.03273515 487.86509132 181.72022438 C487.86698358 187.24834768 487.85879854 192.77636982 487.84303093 198.30447006 C487.8388104 200.32641748 487.83792239 202.3483752 487.84072113 204.37032509 C487.85258344 214.47831792 487.80196207 224.24056978 485.56193542 234.16062927 C482.26799883 235.25860814 479.84915158 235.28710036 476.38008022 235.28926373 C474.42573784 235.29410039 474.42573784 235.29410039 472.43191379 235.29903477 C470.97699883 235.29756336 469.52208396 235.29599562 468.06716919 235.29434204 C466.52769384 235.29620935 464.98821896 235.29850973 463.44874483 235.30120736 C459.20473369 235.30734581 454.96074219 235.30718926 450.71672761 235.30601299 C446.14083003 235.30580939 441.56493882 235.31132518 436.98904419 235.31607056 C428.00165956 235.32439862 419.01428148 235.32712674 410.02689331 235.32768293 C402.68771311 235.32815891 395.34853506 235.3302178 388.00935555 235.33338356 C367.11180171 235.34221086 346.21425301 235.34680193 325.31669729 235.34605309 C324.18872695 235.34601313 323.06075661 235.34597317 321.89860535 235.34593201 C320.76921827 235.34589113 319.63983119 235.34585025 318.47622026 235.34580813 C300.34358335 235.34540533 282.21096759 235.35487558 264.07833677 235.36907037 C245.37169633 235.38359559 226.66506605 235.39033124 207.95841986 235.3894766 C197.49349007 235.38914918 187.0285824 235.39174458 176.56365776 235.40265465 C129.69746505 235.44916898 82.9184914 235.07993778 36.08261609 233.29359651 C29.92739441 233.0611293 23.77166132 232.84285188 17.61599731 232.62246704 C9.55200006 232.33282951 1.48837889 232.03519608 -6.57478333 231.72312927 C-7.4158436 231.69157358 -8.25690387 231.66001788 -9.12345082 231.62750596 C-20.43150813 231.16718572 -20.43150813 231.16718572 -23.43806458 228.16062927 C-23.53742121 226.62022649 -23.56886549 225.07532544 -23.57087708 223.53172302 C-23.57216614 222.5784613 -23.5734552 221.62519958 -23.57478333 220.64305115 C-23.57091614 219.63822693 -23.56704895 218.63340271 -23.56306458 217.59812927 C-23.56693176 216.62037537 -23.57079895 215.64262146 -23.57478333 214.63523865 C-23.57349426 213.67295349 -23.5722052 212.71066833 -23.57087708 211.71922302 C-23.56974915 210.84580261 -23.56862122 209.9723822 -23.56745911 209.07249451 C-23.43806458 206.16062927 -23.43806458 206.16062927 -22.92707825 202.51219177 C-22.24693198 197.32949396 -22.39134645 192.19402832 -22.48103333 186.97703552 C-22.50707394 184.57495464 -22.53120515 182.17285258 -22.55378723 179.77073669 C-22.56629517 178.46945831 -22.5788031 177.16817993 -22.59169006 175.82746887 C-22.88986328 141.56095361 -21.89512674 107.32983069 -20.76746804 73.08624607 C-20.60759423 68.22875674 -20.45230412 63.37113585 -20.29875183 58.51344299 C-20.08847899 51.8780662 -19.86662336 45.24314045 -19.63673592 38.60840988 C-19.55175807 36.12673649 -19.46955856 33.64496627 -19.39025688 31.16310501 C-19.27965168 27.73702405 -19.15757107 24.31154299 -19.03230286 20.88597107 C-19.0020914 19.88123025 -18.97187994 18.87648943 -18.94075298 17.84130192 C-18.74991125 12.96945901 -18.48384238 8.6736928 -16.43806458 4.16062927 C-11.42385596 0.23057387 -6.18108246 0.03760602 0 0 Z M87.56193542 52.16062927 C83.91953478 58.48303696 81.24152112 65.22202997 78.73381042 72.05516052 C78.21410423 73.44953087 78.21410423 73.44953087 77.68389893 74.87207031 C76.94097994 76.86722971 76.20057093 78.86332524 75.46247864 80.86027527 C74.29183252 84.02751873 73.11469827 87.19228136 71.93571472 90.35643005 C70.70964559 93.64709032 69.483945 96.93788182 68.26022339 100.22941589 C64.35917898 110.72126001 60.41606866 121.19699684 56.45829773 131.66755676 C55.4073896 134.44842727 54.35808683 137.22989918 53.30900574 140.01145935 C52.64992937 141.75653418 51.99075205 143.50157089 51.33146667 145.24656677 C51.01793243 146.07800705 50.70439819 146.90944733 50.38136292 147.76608276 C48.79507172 151.95892508 47.18110261 156.13823976 45.52043152 160.30223083 C45.19330673 161.12647552 44.86618195 161.95072021 44.52914429 162.79994202 C43.90975913 164.35555139 43.28470391 165.90891983 42.6529541 167.45954895 C41.26048728 170.96071751 40.56193542 173.33697406 40.56193542 177.16062927 C44.89911384 178.37496622 49.02143594 178.38185498 53.49943542 178.41062927 C54.29800964 178.43125427 55.09658386 178.45187927 55.9193573 178.47312927 C60.60723737 178.50420056 63.81338645 178.29629761 67.56193542 175.16062927 C68.78782581 173.4493485 68.78782581 173.4493485 69.49943542 171.41062927 C69.81525574 170.63203552 70.13107605 169.85344177 70.45646667 169.05125427 C71.00367371 167.6203949 71.00367371 167.6203949 71.56193542 166.16062927 C72.33005116 164.17792729 73.10235606 162.19702073 73.88053894 160.21824646 C74.4138449 158.85745244 74.93922246 157.49352183 75.45622253 156.12644958 C77.34 151.27159699 77.34 151.27159699 79.56193542 150.16062927 C81.6369226 150.06274381 83.71511046 150.02985262 85.79240417 150.02781677 C87.06454773 150.02588318 88.33669128 150.02394958 89.64738464 150.0219574 C91.01473634 150.02606023 92.38208673 150.03062496 93.74943542 150.03562927 C94.43056396 150.0365155 95.1116925 150.03740173 95.8134613 150.03831482 C105.42857859 150.05311826 114.98768758 150.22000141 124.56193542 151.16062927 C126.49569158 155.40001776 128.38080161 159.61810099 129.98771667 163.99266052 C130.23763367 164.65902527 130.48755066 165.32539001 130.74504089 166.01194763 C131.24098062 167.34231799 131.72352542 168.67777284 132.19132996 170.01829529 C133.29112219 172.93557922 134.35297282 174.9680406 136.65568542 177.09031677 C140.84407653 178.63281565 144.7000305 178.5184594 149.12443542 178.41062927 C149.97457214 178.40547302 150.82470886 178.40031677 151.7006073 178.39500427 C155.50074206 178.34731631 158.88725691 178.19762324 162.56193542 177.16062927 C161.98710858 170.67604042 159.85972745 165.07193068 157.53849792 159.02000427 C156.91821465 157.37643448 156.91821465 157.37643448 156.28540039 155.69966125 C154.92571769 152.1008305 153.55628753 148.50579063 152.18693542 144.91062927 C151.24090274 142.41141623 150.29549183 139.91198009 149.35124207 137.41209412 C148.87007654 136.13849632 148.38889051 134.86490628 147.90768433 133.59132385 C147.54764596 132.63842657 147.54764596 132.63842657 147.18033409 131.66627884 C146.44445929 129.71984606 145.70759658 127.77378994 144.97045898 125.82783508 C139.51220804 111.41472627 134.14869764 96.96656604 128.78660583 82.5174408 C127.64896096 79.4528008 126.50983788 76.38871353 125.37052917 73.32469177 C125.04220596 72.43845123 124.71388275 71.55221069 124.37561035 70.63911438 C123.44695524 68.14269562 122.50612683 65.65120831 121.56193542 63.16062927 C121.22533905 62.25399536 120.88874268 61.34736145 120.54194641 60.41325378 C120.20186554 59.52212891 119.86178467 58.63100403 119.51139832 57.71287537 C119.20931961 56.91126984 118.90724091 56.10966431 118.5960083 55.2837677 C117.17655796 52.36937972 115.72301975 50.56701614 112.63395691 49.48582458 C108.96923238 48.91066103 105.32729882 48.93442277 101.62443542 48.91062927 C100.82586121 48.89000427 100.02728699 48.86937927 99.20451355 48.84812927 C94.53063674 48.8171508 91.11653551 48.82239615 87.56193542 52.16062927 Z M336.56193542 51.16062927 C334.73449078 54.2922665 334.31106992 56.56820945 334.30796814 60.17712402 C334.30232849 61.18798569 334.29668884 62.19884735 334.2908783 63.24034119 C334.29492676 64.34333557 334.29897522 65.44632996 334.30314636 66.58274841 C334.29964172 67.74894211 334.29613708 68.9151358 334.29252625 70.1166687 C334.28371436 73.97643462 334.28955593 77.83601769 334.29631042 81.69578552 C334.29496371 84.37331369 334.29302633 87.05083627 334.29051208 89.72836304 C334.28687472 95.34130338 334.29166602 100.95419107 334.30119324 106.56712341 C334.31208268 113.05758347 334.30854779 119.54791793 334.29754043 126.03837496 C334.28846731 131.61129109 334.28718223 137.18416938 334.29241776 142.75709051 C334.29553666 146.08548135 334.29516429 149.41380014 334.28934479 152.74218941 C334.28428337 156.45084842 334.2919844 160.15926386 334.30314636 163.86790466 C334.2990979 164.97292328 334.29504944 166.07794189 334.2908783 167.21644592 C334.29651794 168.22448776 334.30215759 169.2325296 334.30796814 170.27111816 C334.30872219 171.14807878 334.30947624 172.02503939 334.31025314 172.92857456 C334.42160671 175.44627851 334.42160671 175.44627851 336.56193542 178.16062927 C341.85665575 179.37161994 346.99677442 179.21845722 352.37443542 178.91062927 C353.13691589 178.88355896 353.89939636 178.85648865 354.6849823 178.82859802 C357.14643976 178.72804514 357.14643976 178.72804514 360.56193542 178.16062927 C362.68107186 174.98192461 362.81423761 174.17984577 362.83317566 170.53733826 C362.84336227 169.60304489 362.85354889 168.66875153 362.86404419 167.70614624 C362.86618423 166.69983658 362.86832428 165.69352692 362.87052917 164.65672302 C362.89567818 162.53367327 362.92107636 160.41062646 362.94670105 158.2875824 C362.9755186 154.93415516 362.99953219 151.58077877 363.01823425 148.22727966 C363.0397959 144.99516442 363.07921695 141.76363706 363.12052917 138.53172302 C363.12064499 137.52338913 363.1207608 136.51505524 363.12088013 135.47616577 C363.1342189 134.54502457 363.14755768 133.61388336 363.16130066 132.65452576 C363.16890663 131.42233559 363.16890663 131.42233559 363.17666626 130.16525269 C363.30380508 129.50372696 363.43094391 128.84220123 363.56193542 128.16062927 C366.76223784 126.02709433 367.599483 125.90810487 371.27702332 125.88938904 C372.70849449 125.87410912 372.70849449 125.87410912 374.16888428 125.85852051 C375.19706772 125.85638046 376.22525116 125.85424042 377.28459167 125.85203552 C379.45321428 125.82688641 381.62183401 125.80148823 383.79045105 125.77586365 C387.21630681 125.74704597 390.64211283 125.72303277 394.06803894 125.70433044 C397.36964741 125.68276989 400.6706802 125.64334864 403.97209167 125.60203552 C405.51740318 125.6018618 405.51740318 125.6018618 407.09393311 125.60168457 C408.52067604 125.58167641 408.52067604 125.58167641 409.97624207 125.56126404 C410.81546707 125.55619339 411.65469208 125.55112274 412.51934814 125.54589844 C413.53042885 125.3551902 413.53042885 125.3551902 414.56193542 125.16062927 C416.99911827 121.504855 416.8607393 119.57393025 416.87443542 115.22312927 C416.89957214 113.38428162 416.89957214 113.38428162 416.92521667 111.50828552 C416.52406445 107.81164621 416.24791244 106.66767518 413.56193542 104.16062927 C410.8739159 103.74441856 408.5779706 103.57935457 405.88615417 103.58641052 C404.74374016 103.56516365 404.74374016 103.56516365 403.57824707 103.54348755 C401.13516962 103.50157151 398.69282117 103.48638889 396.24943542 103.47312927 C393.06573598 103.43418986 389.88221784 103.38505818 386.69865417 103.33641052 C385.9252066 103.32667206 385.15175903 103.31693359 384.35487366 103.30690002 C377.39800661 103.20318137 370.49478032 102.75941655 363.56193542 102.16062927 C363.53287618 98.41064557 363.51511669 94.6606909 363.49943542 90.91062927 C363.49105652 89.84715271 363.48267761 88.78367615 363.4740448 87.68797302 C363.47082214 86.66316833 363.46759949 85.63836365 363.46427917 84.58250427 C363.45904236 83.63987732 363.45380554 82.69725037 363.44841003 81.72605896 C363.55276396 79.36788474 363.95463651 77.42724186 364.56193542 75.16062927 C365.21259979 75.15254242 365.86326416 75.14445557 366.53364563 75.13612366 C373.31475646 75.04996853 380.09557866 74.95045989 386.87638855 74.84324646 C389.40596158 74.80499817 391.93558823 74.7701381 394.46525574 74.73875427 C398.10444787 74.69301423 401.7432722 74.63503333 405.38224792 74.57469177 C406.51059052 74.56314056 407.63893311 74.55158936 408.8014679 74.53968811 C417.27432817 74.75101037 417.27432817 74.75101037 424.56193542 71.16062927 C424.68861307 68.17044766 424.74714381 65.21368819 424.74943542 62.22312927 C424.76168152 61.38588318 424.77392761 60.54863708 424.7865448 59.6860199 C424.78847839 58.88486755 424.79041199 58.08371521 424.79240417 57.25828552 C424.79651306 56.52102234 424.80062195 55.78375916 424.80485535 55.02415466 C424.72247764 52.91465622 424.72247764 52.91465622 422.56193542 51.16062927 C419.82088774 50.97256331 417.18169256 50.90884523 414.44035339 50.93357849 C413.18170471 50.93314041 413.18170471 50.93314041 411.89762878 50.93269348 C409.11635598 50.93408994 406.33534909 50.94966592 403.55412292 50.96531677 C401.62884162 50.96904578 399.70355842 50.97189328 397.77827454 50.97389221 C392.70488773 50.98153751 387.63161498 51.00119367 382.55827332 51.02330017 C377.38372847 51.04373932 372.20916523 51.05288979 367.03459167 51.06297302 C356.87698941 51.08443874 346.71947189 51.11858546 336.56193542 51.16062927 Z " fill="#221F0A" transform="translate(24.438064575195313,0.8393707275390625)"/>
<path d="M0 0 C2.5751405 1.28757025 2.60142924 2.13786234 3.52807617 4.8137207 C3.81144333 5.62158524 4.09481049 6.42944977 4.38676453 7.26179504 C4.68581192 8.14091049 4.98485931 9.02002594 5.29296875 9.92578125 C5.60325516 10.82491745 5.91354156 11.72405365 6.23323059 12.6504364 C6.88834994 14.55659773 7.53958249 16.46409858 8.18725586 18.37280273 C9.18129913 21.29427576 10.19431733 24.20868258 11.20898438 27.12304688 C11.84231344 28.97355914 12.47451243 30.82445862 13.10546875 32.67578125 C13.41058884 33.54882401 13.71570892 34.42186676 14.03007507 35.32136536 C14.30398575 36.13868637 14.57789642 36.95600739 14.86010742 37.7980957 C15.10500412 38.51455765 15.34990082 39.23101959 15.60221863 39.9691925 C16.06653368 42.33967676 15.86832703 43.75525979 15 46 C11.99710906 47.50144547 8.91548175 47.1462485 5.625 47.125 C4.9134375 47.12306641 4.201875 47.12113281 3.46875 47.11914062 C-2.7185868 47.06924275 -8.84650665 46.65264323 -15 46 C-16.33490498 42.32684425 -15.64414187 40.11620369 -14.375 36.484375 C-14.00109131 35.40462402 -13.62718262 34.32487305 -13.24194336 33.21240234 C-12.83210205 32.06980957 -12.42226074 30.9272168 -12 29.75 C-11.59080322 28.58807129 -11.18160645 27.42614258 -10.76000977 26.22900391 C-7.57058237 17.29612756 -4.03225418 8.58312625 0 0 Z " fill="#24210B" transform="translate(126,83)"/>
</svg>
