<?xml version="1.0" encoding="UTF-8" standalone="no"?>
<svg
   version="1.1"
   width="512"
   height="512"
   id="svg4"
   sodipodi:docname="python_logo.svg"
   inkscape:export-filename="..\..\..\..\..\..\..\python_logo.svg"
   inkscape:export-xdpi="1"
   inkscape:export-ydpi="1"
   xmlns:inkscape="http://www.inkscape.org/namespaces/inkscape"
   xmlns:sodipodi="http://sodipodi.sourceforge.net/DTD/sodipodi-0.dtd"
   xmlns="http://www.w3.org/2000/svg"
   xmlns:svg="http://www.w3.org/2000/svg">
  <defs
     id="defs4" />
  <sodipodi:namedview
     id="namedview4"
     pagecolor="#ffffff"
     bordercolor="#000000"
     borderopacity="0.25"
     inkscape:showpageshadow="2"
     inkscape:pageopacity="0.0"
     inkscape:pagecheckerboard="0"
     inkscape:deskcolor="#d1d1d1" />
  <path
     d="m 363.04297,29.914062 c 11.63705,12.403557 16.25997,26.408151 16.24756,43.051025 0.007,1.295266 0.0134,2.590533 0.0204,3.925049 0.0176,3.539688 0.0224,7.079279 0.0236,10.619007 0.001,2.218153 0.006,4.436282 0.011,6.654429 0.0185,7.757908 0.0267,15.515748 0.0251,23.273688 -0.001,7.19872 0.0199,14.39715 0.0515,21.5958 0.0263,6.205 0.0369,12.40989 0.0356,18.61494 -5.1e-4,3.69487 0.005,7.38947 0.0264,11.08428 0.0232,4.1325 0.0138,8.26433 0.002,12.39687 0.0112,1.20102 0.0225,2.40203 0.0341,3.63945 -0.11695,15.96225 -5.56284,30.61962 -16.52771,42.36421 -13.62913,12.77397 -28.78322,18.16909 -47.13086,18.1543 -1.99869,0.0105 -3.99737,0.021 -5.99606,0.0315 -2.13624,0.009 -4.27245,0.0138 -6.40871,0.0169 -4.47456,0.007 -8.94898,0.0286 -13.42348,0.0525 -9.51099,0.0488 -19.02201,0.0812 -28.53308,0.11194 -10.24387,0.0332 -20.48768,0.0695 -30.73146,0.12413 -3.71159,0.0194 -7.4231,0.0347 -11.13473,0.0403 -28.89787,0.0458 -56.33099,0.83473 -78.39943,22.07381 -0.73735,0.74637 -1.47469,1.49273 -2.23438,2.26172 -1.04414,1.01127 -1.04414,1.01127 -2.10937,2.04297 -13.72369,14.17582 -18.48848,32.53194 -18.5,51.76171 -0.015,1.45975 -0.0318,2.91948 -0.0501,4.37919 -0.0432,3.79085 -0.0636,7.58147 -0.0787,11.37252 -0.0198,3.88889 -0.0617,7.77754 -0.10162,11.66626 -0.0747,7.59239 -0.12537,15.18467 -0.16016,22.77735 -7.47063,0.0766 -14.94117,0.12882 -22.41211,0.16479 -2.53715,0.015 -5.07427,0.0354 -7.61133,0.0615 -3.66412,0.0367 -7.3279,0.0535 -10.99218,0.0667 -1.67888,0.0232 -1.67888,0.0232 -3.39167,0.0469 -16.82252,0.004 -30.87376,-5.58747 -42.8388,-17.42583 C 11.48007,336.95808 6.59485,309.33835 2.00008,282.99991 1.86586,282.23259 1.73163,281.46528 1.59334,280.67471 -4.76106,242.44103 0.22903,192.16936 23.16414,159.96084 35.10646,144.6426 52.48262,134.78992 71.5834,131.42252 c 7.03092,-0.86966 14.11598,-0.68138 21.1889,-0.64966 1.775,5.6e-4 3.55,2.4e-4 5.32499,-8.9e-4 4.7885,-5.7e-4 9.57689,0.0111 14.36536,0.0251 5.01547,0.0126 10.03094,0.0137 15.04642,0.016 9.48405,0.006 18.96806,0.0226 28.45209,0.0427 10.80294,0.0224 21.60589,0.0334 32.40885,0.0434 22.21005,0.0209 44.42006,0.0564 66.63007,0.10065 0,-4.62 0,-9.24 0,-14 -40.59,0 -81.18,0 -123,0 0,-76.347832 0,-76.347832 12.94922,-90.128907 19.81863,-18.082137 51.66376,-20.457364 77.05078,-22.871093 0.73783,-0.07203 1.47566,-0.144053 2.23584,-0.218262 44.20111,-4.079098 104.38978,-6.177585 138.80705,26.132504 z"
     fill="#3671a2"
     id="path1" />
  <path
     d="m 394,131 c 7.18997,-0.0935 14.3798,-0.16417 21.57026,-0.20725 3.34049,-0.0207 6.68024,-0.0509 10.02056,-0.0945 3.85786,-0.049 7.71513,-0.0713 11.57324,-0.0889 1.76182,-0.031 1.76182,-0.031 3.55924,-0.0626 16.01701,-0.004 28.77415,5.17971 40.4642,16.01569 5.55099,5.8149 9.24911,12.31864 12.8125,19.4375 0.52207,0.99773 1.04414,1.99547 1.58203,3.02344 21.65255,45.3618 21.8901,103.74583 5.53125,150.4414 -7.20432,19.91961 -16.38095,41.2931 -36.67578,50.91016 -6.99996,3.01407 -14.37198,3.92556 -21.92275,3.86551 -0.80398,0.002 -1.60796,0.003 -2.43631,0.005 -2.66694,0.003 -5.33364,-0.008 -8.00056,-0.0186 -1.92248,-5.6e-4 -3.84497,-2.5e-4 -5.76746,8.9e-4 -5.19975,5.7e-4 -10.39941,-0.0112 -15.59914,-0.0251 -5.44122,-0.0125 -10.88245,-0.0137 -16.32369,-0.0161 -10.29514,-0.006 -20.59024,-0.0226 -30.88537,-0.0427 -11.72428,-0.0224 -23.44857,-0.0334 -35.17287,-0.0434 C 304.21954,374.07976 280.10978,374.04419 256,374 c 0,4.95 0,9.9 0,15 40.59,0 81.18,0 123,0 0,67.5936 0,67.5936 -14.3125,82.75 -28.66495,26.58137 -76.8243,34.44351 -114.50879,33.33887 -35.6299,-1.45331 -80.19065,-8.72976 -105.72949,-36.32715 -7.65532,-9.30607 -12.5507,-19.98398 -12.58966,-32.17958 -0.006,-1.07496 -0.0114,-2.14992 -0.0173,-3.25745 -0.001,-1.16941 -0.002,-2.33883 -0.003,-3.54368 -0.005,-1.23967 -0.01,-2.47933 -0.015,-3.75657 -0.0121,-3.39504 -0.0196,-6.79002 -0.024,-10.18508 -0.003,-2.12599 -0.007,-4.25198 -0.0115,-6.37796 -0.0137,-6.66567 -0.0233,-13.33132 -0.0272,-19.997 -0.004,-7.66788 -0.022,-15.33559 -0.051,-23.00342 -0.0217,-5.94334 -0.0317,-11.88664 -0.033,-17.83002 -0.001,-3.54165 -0.007,-7.08314 -0.0248,-10.62475 -0.0197,-3.96054 -0.0152,-7.92087 -0.009,-11.88145 -0.0138,-1.73287 -0.0138,-1.73287 -0.0279,-3.50075 0.0869,-17.07418 6.2763,-33.37081 18.38437,-45.62401 14.29532,-12.63164 28.71196,-17.30204 47.3916,-17.28711 2.02118,-0.0105 4.04236,-0.021 6.06354,-0.0315 2.15698,-0.009 4.31393,-0.0138 6.47092,-0.0169 4.51583,-0.007 9.03151,-0.0286 13.54727,-0.0525 9.59219,-0.0488 19.18441,-0.0812 28.77667,-0.11194 10.34517,-0.0332 20.69028,-0.0693 31.03537,-0.12413 4.4764,-0.0232 8.95271,-0.037 13.42917,-0.0435 2.80094,-0.006 5.6018,-0.0201 8.4027,-0.0363 1.89034,-0.009 3.78072,-0.007 5.67107,-0.006 C 334.84103,259.11818 354.79538,252.23413 372,235 c 15.81558,-16.07021 21.2151,-35.22703 21.41406,-57.32031 0.0188,-1.35336 0.0383,-2.7067 0.0587,-4.06003 0.0509,-3.5278 0.0907,-7.05563 0.12814,-10.58359 0.0403,-3.61368 0.0913,-7.2272 0.1413,-10.84076 C 393.83843,145.13032 393.923,138.06523 394,131 Z"
     fill="#ffd045"
     id="path2" />
  <path
     d="m 337.73437,422.44141 c 5.08939,3.50115 8.34037,7.68742 10.26563,13.55859 0.87218,7.35269 0.58377,13.97368 -4,20 -5.17224,5.62033 -11.07543,9.04061 -18.8125,9.5 -6.43093,-0.21567 -11.97673,-2.70401 -16.82032,-6.92187 -5.23622,-5.83196 -7.02578,-12.1357 -6.77343,-19.80078 0.96242,-6.57966 4.24337,-11.16668 9.40625,-15.21485 8.90635,-5.97619 17.25247,-6.38384 26.73437,-1.12109 z"
     fill="#fffefc"
     id="path3" />
  <path
     d="M 198.69922,43.4375 C 203.31987,46.575462 206.9236,50.790278 209,56 c 0.86466,7.600917 0.82722,14.781403 -4,21 -5.22646,5.666311 -11.11996,9.066944 -18.9375,9.4375 C 179.47575,86.217274 175.04701,83.819562 170.1875,79.5 164.31993,72.7942 163.38168,67.641581 163.58984,58.746094 164.17953,53.360339 166.09516,50.601728 170,47 c 0.7541,-0.750234 0.7541,-0.750234 1.52344,-1.515625 8.15862,-7.511112 17.9417,-7.101923 27.17578,-2.046875 z"
     fill="#fcfdfd"
     id="path4" />
</svg>
