<?xml version="1.0" encoding="UTF-8" standalone="no"?>
<svg
   version="1.1"
   width="512"
   height="443"
   id="svg2"
   sodipodi:docname="vuejs_logo.svg"
   inkscape:export-filename="vuejs_logo.png"
   inkscape:export-xdpi="1"
   inkscape:export-ydpi="1"
   xmlns:inkscape="http://www.inkscape.org/namespaces/inkscape"
   xmlns:sodipodi="http://sodipodi.sourceforge.net/DTD/sodipodi-0.dtd"
   xmlns="http://www.w3.org/2000/svg"
   xmlns:svg="http://www.w3.org/2000/svg">
  <defs
     id="defs2" />
  <sodipodi:namedview
     id="namedview2"
     pagecolor="#ffffff"
     bordercolor="#000000"
     borderopacity="0.25"
     inkscape:showpageshadow="2"
     inkscape:pageopacity="0.0"
     inkscape:pagecheckerboard="0"
     inkscape:deskcolor="#d1d1d1" />
  <path
     d="m 0,0 c 25.57287,-0.56151899 51.144812,-0.98427434 76.722612,-1.2434921 11.877604,-0.1235822 23.751368,-0.2919235 35.626508,-0.5670548 10.35507,-0.239798 20.70735,-0.3941764 31.06512,-0.447577 5.48241,-0.031208 10.95689,-0.1040621 16.43675,-0.2793975 33.33577,-1.0263745 33.33577,-1.0263745 41.33025,4.8930245 4.9318,5.6194424 7.66387,11.7781289 9.89269,18.8563419 1.22559,3.689929 2.96868,6.630728 5.04716,9.905342 1.10605,1.918941 2.21153,3.838203 3.31641,5.757813 0.61214,1.061865 1.22429,2.12373 1.85498,3.217773 3.18019,5.516866 6.35679,11.035782 9.53174,16.555664 1.26676,2.200619 2.53368,4.401141 3.80078,6.601563 0.61295,1.065249 1.2259,2.130498 1.85742,3.228027 3.08269,5.345664 6.19147,10.673616 9.34961,15.975098 0.91048,1.528989 0.91048,1.528989 1.83936,3.088867 1.15245,1.930203 2.30885,3.858057 3.46972,5.783203 0.50902,0.851748 1.01804,1.703496 1.54248,2.581055 0.44916,0.745723 0.89832,1.491445 1.36109,2.259766 C 255,98 255,98 255,100 c 0.66,0 1.32,0 2,0 0.41621,-1.092843 0.41621,-1.092843 0.84082,-2.207764 1.08734,-2.619179 2.30815,-5.003463 3.70605,-7.468017 0.50773,-0.897591 1.01546,-1.795181 1.53858,-2.719971 0.5493,-0.962527 1.0986,-1.925054 1.66455,-2.916748 0.57637,-1.014734 1.15274,-2.029468 1.74658,-3.074951 4.65277,-8.170293 9.37691,-16.298221 14.1272,-24.41211 4.91213,-8.390504 9.77446,-16.808988 14.61206,-25.242675 1.1538,-2.006179 2.35347,-3.986547 3.59351,-5.940598 1.811,-3.05871 2.82787,-6.036455 3.84341,-9.436966 C 305.09324,9.743516 307.94429,4.2314146 314,0 c 12.5758,-4.5940228 28.18697,-2.6147617 41.30008,-2.2306666 5.51403,0.1381537 11.02835,0.1504985 16.54384,0.1765589 10.42848,0.068206 20.85185,0.2484705 31.27808,0.4696888 11.87601,0.2464724 23.75228,0.3670008 35.63022,0.4772996 C 463.17097,-0.87756178 487.5852,-0.49096717 512,0 c -1.27176,3.9319547 -2.61733,7.3665584 -4.73047,10.921875 -0.54777,0.929253 -1.09554,1.858506 -1.65991,2.815918 -0.59305,0.994028 -1.1861,1.988057 -1.79712,3.012207 -1.2767,2.163675 -2.55272,4.327752 -3.82813,6.492187 -0.65935,1.116006 -1.31871,2.232012 -1.99804,3.381836 -3.17558,5.39724 -6.3001,10.823617 -9.42383,16.250977 -1.25908,2.184914 -2.5182,4.369809 -3.77734,6.554687 -0.62504,1.085069 -1.25007,2.170137 -1.89405,3.288086 C 479.7632,58.146599 476.63142,63.573193 473.5,69 c -1.25002,2.166656 -2.50002,4.333322 -3.75,6.5 -2.5,4.333333 -5,8.666667 -7.5,13 -0.61883,1.072661 -1.23766,2.145322 -1.87524,3.250488 -1.24912,2.165083 -2.4983,4.330122 -3.74756,6.495117 -3.13922,5.440555 -6.27711,10.881865 -9.41236,16.324705 -6.61707,11.48418 -13.26118,22.95166 -19.94775,34.39551 -6.16628,10.56038 -12.27205,21.15545 -18.37598,31.75195 C 405.7632,186.1466 402.63142,191.57319 399.5,197 c -1.25002,2.16666 -2.50002,4.33332 -3.75,6.5 -2.5,4.33333 -5,8.66667 -7.5,13 -0.61883,1.07266 -1.23766,2.14532 -1.87524,3.25049 -1.24912,2.16508 -2.4983,4.33012 -3.74756,6.49512 -3.13922,5.44055 -6.27711,10.88186 -9.41236,16.3247 C 367.16945,253.06232 361.10879,263.54475 355,274 c -10.46158,17.90848 -20.80094,35.88624 -31.07608,53.90216 -5.18377,9.0858 -10.42586,18.13605 -15.70761,27.16522 -6.15424,10.52373 -12.2401,21.08658 -18.3252,31.65039 C 286.7632,392.1466 283.63142,397.57319 280.5,403 c -1.23049,2.1328 -2.46096,4.26561 -3.69141,6.39844 C 270.53906,420.26562 264.26953,431.13281 258,442 c -1.32,0 -2.64,0 -4,0 -0.48074,-0.85658 -0.48074,-0.85658 -0.97119,-1.73047 -6.78844,-12.08327 -13.6557,-24.11514 -20.6565,-36.07666 -6.20828,-10.60934 -12.3456,-21.25916 -18.4812,-31.91064 C 210.7632,366.8534 207.63146,361.42678 204.5,356 200.73636,349.47767 196.97355,342.95486 193.21484,336.42969 187.16945,325.93768 181.10885,315.45521 175,305 c -9.90773,-16.95845 -19.71248,-33.97585 -29.44629,-51.03467 -9.341,-16.36073 -18.78166,-32.66356 -28.28589,-48.92993 -7.4416,-12.74436 -14.79769,-25.53806 -22.163328,-38.32642 -1.888477,-3.27829 -3.777509,-6.55626 -5.666992,-9.83398 -0.621973,-1.07895 -1.243945,-2.15789 -1.884766,-3.26953 C 83.413116,146.43128 79.244751,139.2744 75.0625,132.125 69.640788,122.855 64.297951,113.54168 58.980774,104.21155 53.779549,95.087172 48.519721,85.998672 43.216553,76.933105 37.072603,66.426717 30.996802,55.881361 24.921875,45.334961 22.288435,40.765246 19.651053,36.197812 17.013672,31.630371 15.122187,28.353407 13.232741,25.075277 11.34375,21.796875 9.3303517,18.302903 7.3110395,14.812597 5.28125,11.328125 4.5416529,10.052091 3.8020682,8.7760505 3.0625,7.5 2.4553516,6.4584375 1.8482031,5.416875 1.2226562,4.34375 0,2 0,2 0,0 Z"
     fill="#40b782"
     id="path1" />
  <path
     d="m 103,0 c 12.14228,-0.55830459 24.28148,-0.98354296 36.43401,-1.2434921 5.64513,-0.1248433 11.28142,-0.2937278 16.92146,-0.5670548 37.57607,-1.7738777 37.57607,-1.7738777 44.98501,4.0361939 5.07463,5.5240416 7.60422,11.7806 9.74595,18.89093 1.19752,3.779621 2.90841,6.663088 5.03466,10.00061 1.10605,1.918941 2.21153,3.838203 3.31641,5.757813 0.61214,1.061865 1.22429,2.12373 1.85498,3.217773 3.18019,5.516866 6.35679,11.035782 9.53174,16.555664 1.26676,2.200619 2.53368,4.401141 3.80078,6.601563 0.61295,1.065249 1.2259,2.130498 1.85742,3.228027 3.08269,5.345664 6.19147,10.673616 9.34961,15.975098 0.91048,1.528989 0.91048,1.528989 1.83936,3.088867 1.15245,1.930203 2.30885,3.858057 3.46972,5.783203 0.50902,0.851748 1.01804,1.703496 1.54248,2.581055 0.44916,0.745723 0.89832,1.491445 1.36109,2.259766 C 255,98 255,98 255,100 c 0.66,0 1.32,0 2,0 0.41621,-1.092843 0.41621,-1.092843 0.84082,-2.207764 1.08734,-2.619179 2.30815,-5.003463 3.70605,-7.468017 0.50773,-0.897591 1.01546,-1.795181 1.53858,-2.719971 0.5493,-0.962527 1.0986,-1.925054 1.66455,-2.916748 0.57637,-1.014734 1.15274,-2.029468 1.74658,-3.074951 4.65277,-8.170293 9.37691,-16.298221 14.1272,-24.41211 4.91213,-8.390504 9.77446,-16.808988 14.61206,-25.242675 1.18514,-2.060677 2.42266,-4.09175 3.69946,-6.096924 1.82365,-3.069629 2.74932,-6.086959 3.7251,-9.514649 C 305.02869,9.4127147 307.62959,3.9784518 314,0 c 13.99581,-4.2833895 30.53476,-2.1488629 44.93103,-1.5106201 5.64294,0.2263206 11.28802,0.3257897 16.9342,0.4364014 C 386.91584,-0.83924814 397.95683,-0.46456324 409,0 c -1.46971,3.7671624 -3.15021,7.1905326 -5.16797,10.699219 -0.95737,1.670141 -0.95737,1.670141 -1.93408,3.374023 -0.69506,1.204807 -1.39021,2.409558 -2.08545,3.614258 -0.72145,1.255387 -1.44263,2.510923 -2.16357,3.766602 -1.85396,3.227101 -3.71194,6.451862 -5.57111,9.675964 -1.02549,1.779143 -2.04977,3.558974 -3.07343,5.339172 -7.20204,12.524733 -14.44893,25.022539 -21.73754,37.497071 -6.1663,10.560162 -12.2719,21.155116 -18.37574,31.751461 C 345.7632,111.1466 342.63142,116.57319 339.5,122 c -1.25002,2.16666 -2.50002,4.33332 -3.75,6.5 -7.5,13 -15,26 -22.5,39 -0.61883,1.07266 -1.23766,2.14532 -1.87524,3.25049 -1.24912,2.16508 -2.4983,4.33012 -3.74756,6.49512 -3.13922,5.44055 -6.27711,10.88186 -9.41236,16.3247 -6.60691,11.46654 -13.24054,22.91658 -19.91699,34.34278 -4.5591,7.80781 -9.09078,15.63118 -13.61035,23.46191 -0.65291,1.13051 -1.30582,2.26102 -1.97852,3.42578 -0.60134,1.04285 -1.20269,2.0857 -1.82226,3.16016 -0.53408,0.92603 -1.06815,1.85206 -1.61841,2.80615 -0.79062,1.39192 -1.55241,2.80112 -2.26831,4.23291 -0.66,0 -1.32,0 -2,0 -0.37173,-0.6683 -0.74347,-1.3366 -1.12646,-2.02515 -9.33937,-16.78174 -9.33937,-16.78174 -18.98365,-33.38891 -3.74213,-6.31266 -7.41365,-12.66501 -11.07739,-19.02344 -0.95592,-1.65866 -0.95592,-1.65866 -1.93115,-3.35083 C 219.92039,203.80807 217.96012,200.40408 216,197 208.6953,184.31652 201.38402,171.63751 194,159 187.25299,147.4527 180.56661,135.87098 173.89111,124.28223 170.7632,118.8534 167.63142,113.42681 164.5,108 c -1.25002,-2.16666 -2.50002,-4.33332 -3.75,-6.5 -0.61875,-1.0725 -1.2375,-2.145 -1.875,-3.25 -5.625,-9.75 -5.625,-9.75 -7.50024,-13.000488 -1.24912,-2.165083 -2.4983,-4.330122 -3.74756,-6.495117 -3.13922,-5.440552 -6.27711,-10.881867 -9.41236,-16.324708 -6.1523,-10.677804 -12.31877,-21.346983 -18.52734,-31.992187 -0.57387,-0.984521 -1.14775,-1.969043 -1.73901,-2.983398 -2.66418,-4.564533 -5.34001,-9.121333 -8.04615,-13.661133 -0.47203,-0.793982 -0.94407,-1.587964 -1.43042,-2.406006 C 107.59934,9.9215898 106.7231,8.4583863 105.84253,6.9978027 103,2.2219422 103,2.2219422 103,0 Z"
     fill="#34495e"
     id="path2" />
</svg>
